<?xml version="1.0" encoding="UTF-8" standalone="no"?>
<!-- Created with Inkscape (http://www.inkscape.org/) -->

<svg
   width="28.639694mm"
   height="49.96574mm"
   viewBox="0 0 28.639694 49.96574"
   version="1.1"
   id="svg5"
   xml:space="preserve"
   xmlns="http://www.w3.org/2000/svg"
   xmlns:svg="http://www.w3.org/2000/svg"><defs
     id="defs2"><clipPath
       id="clip0"><rect
         width="206"
         height="104"
         fill="#ffffff"
         id="rect54"
         x="0"
         y="0" /></clipPath></defs><g
     id="layer1"
     transform="translate(-6.0519646,-145.88227)"><g
       clip-path="url(#clip0)"
       id="g52"
       transform="matrix(0.83315476,0,0,0.99931477,-0.61327343,145.88227)"
       style="fill:none"><path
         d="m 25.1875,0 c 1.5788,0 3.1006,0.203451 4.5654,0.610352 1.4649,0.406898 2.8321,0.984698 4.1016,1.733398 1.2858,0.7487 2.4495,1.64388 3.4912,2.68555 1.0417,1.04166 1.9369,2.2054 2.6855,3.49121 0.7487,1.26953 1.3265,2.63669 1.7334,4.10159 0.407,1.4648 0.6104,2.9866 0.6104,4.5654 0,2.36 -0.4476,4.5492 -1.3428,6.5674 -0.8952,2.0182 -2.1728,3.8493 -3.833,5.4931 -1.3509,1.3347 -2.3926,2.8239 -3.125,4.4678 C 33.3581,35.3597 33,37.1419 33,39.0625 v 6.25 c 0,0.651 -0.1221,1.2614 -0.3662,1.8311 -0.2442,0.5696 -0.5778,1.066 -1.001,1.4892 -0.4232,0.4232 -0.9196,0.7568 -1.4892,1.001 C 29.5739,49.8779 28.9635,50 28.3125,50 h -6.25 c -0.651,0 -1.2614,-0.1221 -1.8311,-0.3662 -0.5696,-0.2442 -1.066,-0.5778 -1.4892,-1.001 -0.4232,-0.4232 -0.7568,-0.9196 -1.001,-1.4892 -0.2441,-0.5697 -0.3662,-1.1801 -0.3662,-1.8311 v -6.25 c 0,-1.9206 -0.3662,-3.7028 -1.0986,-5.3467 C 15.5602,32.0719 14.5267,30.5827 13.1758,29.248 11.5156,27.6042 10.238,25.7731 9.34277,23.7549 8.44759,21.7367 8,19.5475 8,17.1875 8,15.6087 8.20345,14.0869 8.61035,12.6221 9.01725,11.1572 9.59505,9.79004 10.3438,8.52051 11.0924,7.2347 11.9876,6.07096 13.0293,5.0293 14.071,3.98763 15.2266,3.09245 16.4961,2.34375 17.7819,1.59505 19.1572,1.01725 20.6221,0.610352 22.0869,0.203451 23.6087,0 25.1875,0 Z m 3.125,46.875 c 0.4232,0 0.7894,-0.1546 1.0986,-0.4639 0.3093,-0.3092 0.4639,-0.6754 0.4639,-1.0986 V 40.625 H 20.5 v 4.6875 c 0,0.4232 0.1546,0.7894 0.4639,1.0986 0.3092,0.3093 0.6754,0.4639 1.0986,0.4639 z M 29.9482,37.5 c 0.2116,-2.0996 0.7487,-4.0039 1.6114,-5.7129 0.8626,-1.709 2.0263,-3.304 3.4912,-4.7851 1.3509,-1.3672 2.3844,-2.8565 3.1006,-4.4678 0.7324,-1.6276 1.0986,-3.4099 1.0986,-5.3467 0,-1.9368 -0.3743,-3.7598 -1.123,-5.4687 C 37.3945,10.0098 36.3936,8.52051 35.124,7.25098 33.8545,5.98145 32.3652,4.98047 30.6562,4.24805 28.9473,3.49935 27.1243,3.125 25.1875,3.125 c -1.9368,0 -3.7598,0.37435 -5.4687,1.12305 -1.709,0.73242 -3.1983,1.7334 -4.4678,3.00293 -1.2696,1.26953 -2.2787,2.75882 -3.0274,4.46782 -0.7324,1.7089 -1.0986,3.5319 -1.0986,5.4687 0,1.9368 0.3581,3.7191 1.0742,5.3467 0.7324,1.6113 1.7741,3.1006 3.125,4.4678 1.4649,1.4811 2.6286,3.0761 3.4912,4.7851 0.8627,1.709 1.3998,3.6133 1.6114,5.7129 z"
         fill="#444444"
         id="path36" /></g></g></svg>
