<?xml version="1.0" encoding="UTF-8" standalone="no"?>
<!-- Created with Inkscape (http://www.inkscape.org/) -->

<svg
   width="28.639694mm"
   height="49.96574mm"
   viewBox="0 0 28.639694 49.96574"
   version="1.1"
   id="svg5"
   xml:space="preserve"
   xmlns="http://www.w3.org/2000/svg"
   xmlns:svg="http://www.w3.org/2000/svg"><defs
     id="defs2"><clipPath
       id="clip0"><rect
         width="206"
         height="104"
         fill="#ffffff"
         id="rect54"
         x="0"
         y="0" /></clipPath></defs><g
     id="layer1"
     transform="translate(-6.0519646,-198.84595)"><g
       clip-path="url(#clip0)"
       id="g52"
       transform="matrix(0.83315476,0,0,0.99931477,-0.61327343,145.88227)"
       style="fill:none"><path
         d="m 25.1875,53 c 1.5788,0 3.1006,0.2035 4.5654,0.6104 1.4649,0.4069 2.8321,0.9847 4.1016,1.7334 1.2858,0.7486 2.4495,1.6438 3.4912,2.6855 1.0417,1.0417 1.9369,2.2054 2.6855,3.4912 0.7487,1.2695 1.3265,2.6367 1.7334,4.1016 0.407,1.4648 0.6104,2.9866 0.6104,4.5654 0,2.36 -0.4476,4.5492 -1.3428,6.5674 -0.8952,2.0182 -2.1728,3.8493 -3.833,5.4931 -1.3509,1.3347 -2.3926,2.8239 -3.125,4.4678 C 33.3581,88.3597 33,90.1419 33,92.0625 v 6.25 c 0,0.651 -0.1221,1.2614 -0.3662,1.8315 -0.2442,0.569 -0.5778,1.066 -1.001,1.489 -0.4232,0.423 -0.9196,0.757 -1.4892,1.001 -0.5697,0.244 -1.1801,0.366 -1.8311,0.366 h -6.25 c -0.651,0 -1.2614,-0.122 -1.8311,-0.366 -0.5696,-0.244 -1.066,-0.578 -1.4892,-1.001 -0.4232,-0.423 -0.7568,-0.92 -1.001,-1.489 -0.2441,-0.5701 -0.3662,-1.1805 -0.3662,-1.8315 v -6.25 c 0,-1.9206 -0.3662,-3.7028 -1.0986,-5.3467 C 15.5602,85.0719 14.5267,83.5827 13.1758,82.248 11.5156,80.6042 10.238,78.7731 9.34277,76.7549 8.44759,74.7367 8,72.5475 8,70.1875 c 0,-1.5788 0.20345,-3.1006 0.61035,-4.5654 0.4069,-1.4649 0.9847,-2.8321 1.73345,-4.1016 0.7486,-1.2858 1.6438,-2.4495 2.6855,-3.4912 1.0417,-1.0417 2.1973,-1.9369 3.4668,-2.6855 1.2858,-0.7487 2.6611,-1.3265 4.126,-1.7334 C 22.0869,53.2035 23.6087,53 25.1875,53 Z m 3.125,46.875 c 0.4232,0 0.7894,-0.1546 1.0986,-0.4639 0.3093,-0.3092 0.4639,-0.6754 0.4639,-1.0986 V 93.625 H 20.5 v 4.6875 c 0,0.4232 0.1546,0.7894 0.4639,1.0986 0.3092,0.3093 0.6754,0.4639 1.0986,0.4639 z M 29.9482,90.5 c 0.2116,-2.0996 0.7487,-4.0039 1.6114,-5.7129 0.8626,-1.709 2.0263,-3.304 3.4912,-4.7851 1.3509,-1.3672 2.3844,-2.8565 3.1006,-4.4678 0.7324,-1.6276 1.0986,-3.4099 1.0986,-5.3467 0,-1.9368 -0.3743,-3.7598 -1.123,-5.4687 -0.7325,-1.709 -1.7334,-3.1983 -3.003,-4.4678 -1.2695,-1.2696 -2.7588,-2.2705 -4.4678,-3.003 -1.7089,-0.7487 -3.5319,-1.123 -5.4687,-1.123 -1.9368,0 -3.7598,0.3743 -5.4687,1.123 -1.709,0.7325 -3.1983,1.7334 -4.4678,3.003 -1.2696,1.2695 -2.2787,2.7588 -3.0274,4.4678 -0.7324,1.7089 -1.0986,3.5319 -1.0986,5.4687 0,1.9368 0.3581,3.7191 1.0742,5.3467 0.7324,1.6113 1.7741,3.1006 3.125,4.4678 1.4649,1.4811 2.6286,3.0761 3.4912,4.7851 0.8627,1.709 1.3998,3.6133 1.6114,5.7129 z"
         fill="#2e3192"
         id="path44" /></g></g></svg>
