<?xml version="1.0" encoding="UTF-8" standalone="no"?>
<!-- Created with Inkscape (http://www.inkscape.org/) -->

<svg
   width="41.241161mm"
   height="49.96574mm"
   viewBox="0 0 41.241161 49.96574"
   version="1.1"
   id="svg5"
   xml:space="preserve"
   xmlns="http://www.w3.org/2000/svg"
   xmlns:svg="http://www.w3.org/2000/svg"><defs
     id="defs2"><clipPath
       id="clip0"><rect
         width="206"
         height="104"
         fill="#ffffff"
         id="rect54"
         x="0"
         y="0" /></clipPath></defs><g
     id="layer1"
     transform="translate(-42.710774,-145.88227)"><g
       clip-path="url(#clip0)"
       id="g52"
       transform="matrix(0.83315476,0,0,0.99931477,-0.61327343,145.88227)"
       style="fill:none"><path
         d="m 74.7917,28.125 -2.75,2.75 C 71.6234,29.1911 70.6537,27.6957 69.2869,26.6269 67.9202,25.5581 66.235,24.9774 64.5,24.9774 c -1.735,0 -3.4202,0.5807 -4.7869,1.6495 -1.3668,1.0688 -2.3365,2.5642 -2.7548,4.2481 l -2.75,-2.75 L 52,30.3333 55.5833,33.9167 55.125,34.375 V 37.5 H 52 v 3.125 h 3.125 v 0.1667 c 0.1594,1.018 0.4464,2.012 0.8542,2.9583 L 52,47.7917 54.2083,50 57.6458,46.5625 c 0.8179,1.0435 1.8567,1.8928 3.0417,2.4872 1.1851,0.5943 2.4871,0.9189 3.8125,0.9503 1.3254,-0.0314 2.6274,-0.356 3.8125,-0.9503 1.1851,-0.5944 2.2238,-1.4437 3.0417,-2.4872 L 74.7917,50 77,47.7917 73.0208,43.75 c 0.4129,-0.9662 0.7,-1.9815 0.8542,-3.0208 V 40.5208 H 77 V 37.5 H 73.875 V 34.375 L 73.4167,33.9167 77,30.3333 Z m -10.2917,0 c 1.2432,0 2.4355,0.4939 3.3146,1.3729 0.879,0.8791 1.3729,2.0714 1.3729,3.3146 h -9.375 c 0,-1.2432 0.4939,-2.4355 1.3729,-3.3146 0.8791,-0.879 2.0714,-1.3729 3.3146,-1.3729 z m 6.25,12.5 c -0.1526,1.6059 -0.8601,3.1085 -2.0008,4.2492 C 67.6085,46.0149 66.1059,46.7224 64.5,46.875 62.8941,46.7224 61.3915,46.0149 60.2508,44.8742 59.1101,43.7335 58.4026,42.2309 58.25,40.625 v -4.6875 h 12.5 z M 101.5,20 v 2.625 L 80.125,36.1875 V 32.5 L 97.8333,21.3125 70.75,4.16667 V 23.875 c -0.952,-0.6687 -2.0078,-1.1755 -3.125,-1.5 V 1.3125 L 70,0 Z"
         fill="#444444"
         id="path42" /></g></g></svg>
