<?xml version="1.0" encoding="UTF-8" standalone="no"?>
<!-- Created with Inkscape (http://www.inkscape.org/) -->

<svg
   width="31.377487mm"
   height="50.142265mm"
   viewBox="0 0 31.377487 50.142265"
   version="1.1"
   id="svg5"
   xml:space="preserve"
   xmlns="http://www.w3.org/2000/svg"
   xmlns:svg="http://www.w3.org/2000/svg"><defs
     id="defs2"><clipPath
       id="clip0"><rect
         width="206"
         height="104"
         fill="#ffffff"
         id="rect54"
         x="0"
         y="0" /></clipPath></defs><g
     id="layer1"
     transform="translate(-91.107931,-145.88074)"><g
       clip-path="url(#clip0)"
       id="g52"
       transform="matrix(0.83315476,0,0,0.99931477,-0.61327343,145.88227)"
       style="fill:none"><path
         d="m 147.75,17.1875 c 0.007,-1.4504 -0.389,-2.8743 -1.146,-4.1121 -0.756,-1.2377 -1.841,-2.2406 -3.135,-2.8961 -1.294,-0.65562 -2.745,-0.93806 -4.19,-0.81574 -1.446,0.12233 -2.828,0.64454 -3.994,1.50834 -1.165,0.8637 -2.067,2.0347 -2.604,3.382 -0.537,1.3472 -0.689,2.8175 -0.438,4.2461 0.251,1.4285 0.895,2.7591 1.859,3.8425 0.964,1.0834 2.211,1.877 3.601,2.2919 -0.513,1.043 -1.307,1.9222 -2.292,2.5388 -0.986,0.6167 -2.124,0.9463 -3.286,0.9518 h -6.25 c -2.314,0.0081 -4.542,0.877 -6.25,2.4375 V 15.4656 c 1.897,-0.3872 3.583,-1.465 4.73,-3.0243 1.147,-1.5594 1.675,-3.48931 1.48,-5.41556 -0.194,-1.92625 -1.097,-3.71164 -2.533,-5.01002 -1.436,-1.298379 -3.303,-2.01725351 -5.24,-2.01725351 -1.936,0 -3.803,0.71887451 -5.239,2.01725351 -1.436,1.29838 -2.339,3.08377 -2.533,5.01002 -0.195,1.92625 0.333,3.85616 1.48,5.41556 1.147,1.5593 2.833,2.6371 4.73,3.0243 v 19.0625 c -1.893,0.3621 -3.589,1.4046 -4.767,2.9307 -1.177,1.5262 -1.756,3.4305 -1.626,5.3538 0.13,1.9233 0.959,3.7327 2.331,5.0869 1.372,1.3541 3.192,2.1594 5.117,2.264 1.925,0.1045 3.821,-0.4989 5.332,-1.6964 1.51,-1.1976 2.531,-2.9065 2.868,-4.8045 0.337,-1.8979 -0.032,-3.8537 -1.037,-5.4984 -1.006,-1.6448 -2.578,-2.8647 -4.421,-3.4298 0.514,-1.0419 1.308,-1.9198 2.294,-2.5353 0.985,-0.6155 2.122,-0.9441 3.284,-0.9491 h 6.25 c 1.95,-0.009 3.848,-0.6258 5.431,-1.7646 1.583,-1.1387 2.772,-2.7427 3.4,-4.5885 1.873,-0.2464 3.594,-1.1632 4.843,-2.5806 1.249,-1.4175 1.942,-3.2395 1.951,-5.1288 z m -34.375,-9.375 c 0,-0.9271 0.275,-1.83338 0.79,-2.60424 0.515,-0.77085 1.247,-1.37166 2.104,-1.72645 0.856,-0.35478 1.799,-0.44761 2.708,-0.26674 0.909,0.18086 1.744,0.62731 2.4,1.28286 0.656,0.65556 1.102,1.49079 1.283,2.40008 0.181,0.90929 0.088,1.85179 -0.267,2.70832 -0.355,0.85657 -0.955,1.58857 -1.726,2.10367 -0.771,0.5151 -1.677,0.79 -2.605,0.79 -1.243,0 -2.435,-0.4939 -3.314,-1.3729 -0.879,-0.8791 -1.373,-2.0714 -1.373,-3.3146 z m 9.375,34.375 c 0,0.9271 -0.275,1.8334 -0.79,2.6042 -0.515,0.7709 -1.247,1.3717 -2.104,1.7265 -0.856,0.3548 -1.799,0.4476 -2.708,0.2667 -0.909,-0.1808 -1.745,-0.6273 -2.4,-1.2828 -0.656,-0.6556 -1.102,-1.4908 -1.283,-2.4001 -0.181,-0.9093 -0.088,-1.8518 0.267,-2.7083 0.355,-0.8566 0.955,-1.5887 1.726,-2.1037 0.771,-0.5151 1.677,-0.79 2.604,-0.79 1.244,0 2.436,0.4939 3.315,1.3729 0.879,0.8791 1.373,2.0714 1.373,3.3146 z M 139.937,21.875 c -0.927,0 -1.833,-0.2749 -2.604,-0.79 -0.771,-0.5151 -1.371,-1.2471 -1.726,-2.1037 -0.355,-0.8565 -0.448,-1.799 -0.267,-2.7083 0.181,-0.9093 0.627,-1.7445 1.283,-2.4001 0.655,-0.6555 1.491,-1.102 2.4,-1.2828 0.909,-0.1809 1.852,-0.0881 2.708,0.2667 0.857,0.3548 1.589,0.9556 2.104,1.7265 0.515,0.7708 0.79,1.6771 0.79,2.6042 0,1.2432 -0.494,2.4355 -1.373,3.3146 -0.879,0.879 -2.071,1.3729 -3.315,1.3729 z"
         fill="#444444"
         id="path38" /></g></g></svg>
