<?xml version="1.0" encoding="UTF-8" standalone="no"?>
<!-- Created with Inkscape (http://www.inkscape.org/) -->

<svg
   width="31.377487mm"
   height="50.141842mm"
   viewBox="0 0 31.377487 50.141842"
   version="1.1"
   id="svg5"
   xml:space="preserve"
   xmlns="http://www.w3.org/2000/svg"
   xmlns:svg="http://www.w3.org/2000/svg"><defs
     id="defs2"><clipPath
       id="clip0"><rect
         width="206"
         height="104"
         fill="#ffffff"
         id="rect54"
         x="0"
         y="0" /></clipPath></defs><g
     id="layer1"
     transform="translate(-91.107931,-198.84445)"><g
       clip-path="url(#clip0)"
       id="g52"
       transform="matrix(0.83315476,0,0,0.99931477,-0.61327343,145.88227)"
       style="fill:none"><path
         d="m 147.75,70.1875 c 0.007,-1.4504 -0.389,-2.8743 -1.146,-4.112 -0.756,-1.2378 -1.841,-2.2406 -3.135,-2.8962 -1.294,-0.6556 -2.745,-0.938 -4.19,-0.8157 -1.446,0.1223 -2.828,0.6446 -3.994,1.5083 -1.165,0.8637 -2.067,2.0347 -2.604,3.382 -0.537,1.3472 -0.689,2.8175 -0.438,4.2461 0.251,1.4286 0.895,2.7591 1.859,3.8425 0.964,1.0835 2.211,1.877 3.601,2.2919 -0.513,1.043 -1.307,1.9222 -2.292,2.5388 -0.986,0.6167 -2.124,0.9463 -3.286,0.9518 h -6.25 c -2.314,0.0082 -4.542,0.877 -6.25,2.4375 V 68.4656 c 1.897,-0.3872 3.583,-1.4649 4.73,-3.0243 1.147,-1.5594 1.675,-3.4893 1.48,-5.4155 -0.194,-1.9263 -1.097,-3.7117 -2.533,-5.0101 -1.436,-1.2983 -3.303,-2.0172 -5.24,-2.0172 -1.936,0 -3.803,0.7189 -5.239,2.0172 -1.436,1.2984 -2.339,3.0838 -2.533,5.0101 -0.195,1.9262 0.333,3.8561 1.48,5.4155 1.147,1.5594 2.833,2.6371 4.73,3.0243 v 19.0625 c -1.893,0.3622 -3.589,1.4046 -4.767,2.9308 -1.177,1.5261 -1.756,3.4304 -1.626,5.3537 0.13,1.9234 0.959,3.7327 2.331,5.0864 1.372,1.355 3.192,2.16 5.117,2.264 1.925,0.105 3.821,-0.498 5.332,-1.696 1.51,-1.197 2.531,-2.9064 2.868,-4.8044 0.337,-1.8979 -0.032,-3.8537 -1.037,-5.4984 -1.006,-1.6447 -2.578,-2.8647 -4.421,-3.4298 0.514,-1.0418 1.308,-1.9198 2.294,-2.5353 0.985,-0.6154 2.122,-0.9441 3.284,-0.9491 h 6.25 c 1.95,-0.009 3.848,-0.6258 5.431,-1.7645 1.583,-1.1388 2.772,-2.7427 3.4,-4.5886 1.873,-0.2463 3.594,-1.1631 4.843,-2.5806 1.249,-1.4174 1.942,-3.2395 1.951,-5.1288 z m -34.375,-9.375 c 0,-0.9271 0.275,-1.8334 0.79,-2.6042 0.515,-0.7709 1.247,-1.3717 2.104,-1.7265 0.856,-0.3547 1.799,-0.4476 2.708,-0.2667 0.909,0.1809 1.744,0.6273 2.4,1.2829 0.656,0.6555 1.102,1.4908 1.283,2.4 0.181,0.9093 0.088,1.8518 -0.267,2.7084 -0.355,0.8565 -0.955,1.5886 -1.726,2.1036 -0.771,0.5151 -1.677,0.79 -2.605,0.79 -1.243,0 -2.435,-0.4938 -3.314,-1.3729 -0.879,-0.8791 -1.373,-2.0714 -1.373,-3.3146 z m 9.375,34.375 c 0,0.9271 -0.275,1.8334 -0.79,2.6043 -0.515,0.7708 -1.247,1.3716 -2.104,1.7264 -0.856,0.3548 -1.799,0.4476 -2.708,0.2668 -0.909,-0.1809 -1.745,-0.6274 -2.4,-1.2829 -0.656,-0.6556 -1.102,-1.4908 -1.283,-2.4001 -0.181,-0.9093 -0.088,-1.8518 0.267,-2.7083 0.355,-0.8565 0.955,-1.5886 1.726,-2.1037 0.771,-0.5151 1.677,-0.79 2.604,-0.79 1.244,0 2.436,0.4939 3.315,1.373 0.879,0.879 1.373,2.0713 1.373,3.3145 z M 139.937,74.875 c -0.927,0 -1.833,-0.2749 -2.604,-0.79 -0.771,-0.515 -1.371,-1.2471 -1.726,-2.1037 -0.355,-0.8565 -0.448,-1.799 -0.267,-2.7083 0.181,-0.9092 0.627,-1.7445 1.283,-2.4 0.655,-0.6556 1.491,-1.102 2.4,-1.2829 0.909,-0.1809 1.852,-0.088 2.708,0.2667 0.857,0.3548 1.589,0.9556 2.104,1.7265 0.515,0.7708 0.79,1.6771 0.79,2.6042 0,1.2432 -0.494,2.4355 -1.373,3.3146 -0.879,0.8791 -2.071,1.3729 -3.315,1.3729 z"
         fill="#f42534"
         id="path46" /></g></g></svg>
