<?xml version="1.0" encoding="UTF-8" standalone="no"?>
<!-- Created with Inkscape (http://www.inkscape.org/) -->

<svg
   width="41.657738mm"
   height="49.96574mm"
   viewBox="0 0 41.657738 49.96574"
   version="1.1"
   id="svg5"
   xml:space="preserve"
   xmlns="http://www.w3.org/2000/svg"
   xmlns:svg="http://www.w3.org/2000/svg"><defs
     id="defs2"><clipPath
       id="clip0"><rect
         width="206"
         height="104"
         fill="#ffffff"
         id="rect54"
         x="0"
         y="0" /></clipPath></defs><g
     id="layer1"
     transform="translate(-129.35887,-198.84595)"><g
       clip-path="url(#clip0)"
       id="g52"
       transform="matrix(0.83315476,0,0,0.99931477,-0.61327343,145.88227)"
       style="fill:none"><path
         fill-rule="evenodd"
         clip-rule="evenodd"
         d="M 184.125,56.125 187.25,53 h 15.625 L 206,56.125 V 71.75 l -3.125,3.125 H 187.25 l -3.125,-3.125 z m 3.125,0 V 71.75 h 15.625 V 56.125 Z M 156,84.25 V 65.5 l 3.125,-3.125 h 15.625 l 3.125,3.125 v 15.625 l -1.563,1.5625 10e-4,1e-4 1.562,-1.5626 H 193.5 l 3.125,3.125 V 99.875 L 193.5,103 h -15.625 -3.125 v 0 0 H 159.125 L 156,99.875 Z m 3.125,15.625 V 84.25 h 15.625 v 15.625 z m 18.75,0 V 84.25 H 193.5 v 15.625 z m -18.75,-18.75 V 65.5 h 15.625 v 15.625 z"
         fill="#000000"
         id="path48" /></g></g></svg>
